<?xml version="1.0" encoding="utf-8"?>
<!-- Generator: Adobe Illustrator 27.9.0, SVG Export Plug-In . SVG Version: 6.00 Build 0)  -->
<svg version="1.1" id="Layer_1" xmlns="http://www.w3.org/2000/svg" xmlns:xlink="http://www.w3.org/1999/xlink" x="0px" y="0px"
	 viewBox="0 0 1500 850.2" style="enable-background:new 0 0 1500 850.2;" xml:space="preserve">
<style type="text/css">
	.st0{fill:#FAC14F;}
	.st1{fill:#F2768E;}
</style>
<g>
	<g>
		<path class="st0" d="M1449.2,0.2H50c-27.6,0-50,22.4-50,50v528c212-112.6,437.9-208.7,616.8-227c473.7-48.4,515.1,127,882.2,109.6
			c0.1,0,0.1,0,0.2,0V50.2C1499.2,22.6,1476.8,0.2,1449.2,0.2z"/>
	</g>
	<g>
		<path class="st1" d="M617.6,351.5c-178.9,18.3-404.8,114.4-616.8,227V800c0,27.6,22.4,50,50,50H1450c27.6,0,50-22.4,50-50V461.1
			c-0.1,0-0.1,0-0.2,0C1132.7,478.5,1091.4,303.1,617.6,351.5z"/>
	</g>
</g>
</svg>
